<svg width="1414" height="505" viewBox="0 0 1414 505" fill="none" xmlns="http://www.w3.org/2000/svg">
<mask id="path-1-outside-1" maskUnits="userSpaceOnUse" x="0" y="0" width="1414" height="470" fill="black">
<rect fill="white" width="1414" height="470"/>
<path fill-rule="evenodd" clip-rule="evenodd" d="M1325.72 375.234C1378.28 341.948 1411 295.094 1411 243.188C1411 142.192 1287.11 60.3179 1134.28 60.3179C1077.2 60.3179 1024.16 71.74 980.095 91.3145C891.414 38.1288 738.43 3 564.572 3C303.572 3 89.6124 82.17 69.6337 182.75C28.5739 206.284 3.00049 239.443 3.00049 276.182C3.00049 321.642 42.1549 361.62 101.354 384.665C159.763 431.67 409.639 467 709.034 467C1028.14 467 1291 426.864 1325.72 375.234Z"/>
</mask>
<path fill-rule="evenodd" clip-rule="evenodd" d="M1325.72 375.234C1378.28 341.948 1411 295.094 1411 243.188C1411 142.192 1287.11 60.3179 1134.28 60.3179C1077.2 60.3179 1024.16 71.74 980.095 91.3145C891.414 38.1288 738.43 3 564.572 3C303.572 3 89.6124 82.17 69.6337 182.75C28.5739 206.284 3.00049 239.443 3.00049 276.182C3.00049 321.642 42.1549 361.62 101.354 384.665C159.763 431.67 409.639 467 709.034 467C1028.14 467 1291 426.864 1325.72 375.234Z" fill="white"/>
<path d="M1325.72 375.234L1323.23 373.56L1323.58 373.037L1324.12 372.7L1325.72 375.234ZM980.095 91.3145L981.313 94.0561L979.889 94.6889L978.552 93.8873L980.095 91.3145ZM69.6337 182.75L72.5762 183.334L72.3102 184.673L71.1255 185.352L69.6337 182.75ZM101.354 384.665L102.443 381.87L102.874 382.038L103.235 382.328L101.354 384.665ZM1324.12 372.7C1376.13 339.755 1408 293.728 1408 243.188H1414C1414 296.46 1380.42 344.142 1327.33 377.769L1324.12 372.7ZM1408 243.188C1408 194.018 1377.84 149.123 1328.3 116.382C1278.78 83.6568 1210.19 63.3179 1134.28 63.3179V57.3179C1211.2 57.3179 1280.97 77.916 1331.61 111.377C1382.21 144.822 1414 191.363 1414 243.188H1408ZM1134.28 63.3179C1077.59 63.3179 1024.96 74.6637 981.313 94.0561L978.877 88.5729C1023.35 68.8164 1076.81 57.3179 1134.28 57.3179V63.3179ZM978.552 93.8873C890.517 41.0891 738.143 6 564.572 6V0C738.716 0 892.311 35.1686 981.638 88.7417L978.552 93.8873ZM564.572 6C434.343 6 315.964 25.7557 227.749 57.9754C183.637 74.0869 147.181 93.274 120.568 114.574C93.9349 135.889 77.3834 159.133 72.5762 183.334L66.6912 182.165C71.8733 156.077 89.5587 131.707 116.819 109.89C144.098 88.057 181.19 68.5929 225.691 52.3395C314.701 19.8293 433.801 0 564.572 0V6ZM71.1255 185.352C30.5431 208.613 6.00049 240.956 6.00049 276.182H0.000488281C0.000488281 237.93 26.6046 203.955 68.1418 180.147L71.1255 185.352ZM6.00049 276.182C6.00049 319.77 43.6614 358.988 102.443 381.87L100.266 387.461C40.6484 364.253 0.000488281 323.513 0.000488281 276.182H6.00049ZM103.235 382.328C117.322 393.664 143.368 404.558 179.634 414.466C215.783 424.343 261.712 433.144 315.232 440.487C422.264 455.173 559.442 464 709.034 464V470C559.231 470 421.774 461.162 314.417 446.432C260.742 439.067 214.538 430.222 178.052 420.254C141.682 410.318 114.591 399.169 99.4735 387.002L103.235 382.328ZM709.034 464C868.48 464 1013.82 453.972 1123.58 437.512C1178.47 429.28 1224.38 419.452 1258.68 408.496C1275.83 403.018 1290 397.282 1300.91 391.364C1311.88 385.417 1319.29 379.425 1323.23 373.56L1328.21 376.908C1323.47 383.951 1315.08 390.508 1303.77 396.638C1292.42 402.797 1277.86 408.667 1260.5 414.212C1225.78 425.303 1179.52 435.189 1124.47 443.445C1014.34 459.96 868.699 470 709.034 470V464Z" fill="#CACACA" mask="url(#path-1-outside-1)"/>
<path d="M257.333 170H250.008V154.766H235.726V170H228.402V134.453H235.726V148.857H250.008V134.453H257.333V170ZM262.191 156.548C262.191 153.927 262.695 151.592 263.705 149.541C264.714 147.49 266.162 145.903 268.05 144.78C269.955 143.657 272.16 143.096 274.667 143.096C278.231 143.096 281.136 144.186 283.382 146.367C285.645 148.548 286.906 151.51 287.167 155.254L287.215 157.061C287.215 161.113 286.084 164.368 283.822 166.826C281.559 169.268 278.524 170.488 274.715 170.488C270.907 170.488 267.863 169.268 265.584 166.826C263.322 164.385 262.191 161.064 262.191 156.865V156.548ZM269.247 157.061C269.247 159.567 269.719 161.488 270.663 162.822C271.607 164.141 272.958 164.8 274.715 164.8C276.424 164.8 277.759 164.149 278.719 162.847C279.68 161.528 280.16 159.429 280.16 156.548C280.16 154.09 279.68 152.186 278.719 150.835C277.759 149.484 276.408 148.809 274.667 148.809C272.941 148.809 271.607 149.484 270.663 150.835C269.719 152.17 269.247 154.245 269.247 157.061ZM298.177 143.584L298.397 146.538C300.269 144.243 302.8 143.096 305.99 143.096C309.391 143.096 311.727 144.438 312.997 147.124C314.852 144.438 317.497 143.096 320.931 143.096C323.796 143.096 325.928 143.934 327.328 145.61C328.727 147.271 329.427 149.777 329.427 153.13V170H322.347V153.154C322.347 151.657 322.054 150.566 321.468 149.883C320.882 149.183 319.849 148.833 318.368 148.833C316.252 148.833 314.787 149.842 313.973 151.86L313.998 170H306.942V153.179C306.942 151.649 306.641 150.542 306.039 149.858C305.436 149.175 304.411 148.833 302.962 148.833C300.96 148.833 299.512 149.663 298.617 151.323V170H291.561V143.584H298.177ZM347.03 170.488C343.156 170.488 339.999 169.3 337.557 166.924C335.132 164.548 333.919 161.382 333.919 157.427V156.743C333.919 154.09 334.432 151.722 335.458 149.639C336.483 147.539 337.931 145.928 339.803 144.805C341.691 143.665 343.84 143.096 346.249 143.096C349.862 143.096 352.702 144.235 354.769 146.514C356.852 148.792 357.894 152.023 357.894 156.206V159.087H341.073C341.301 160.812 341.984 162.196 343.124 163.237C344.279 164.279 345.736 164.8 347.494 164.8C350.212 164.8 352.336 163.815 353.866 161.846L357.333 165.728C356.275 167.225 354.842 168.397 353.036 169.243C351.229 170.073 349.227 170.488 347.03 170.488ZM346.224 148.809C344.824 148.809 343.685 149.281 342.806 150.225C341.944 151.169 341.39 152.52 341.146 154.277H350.96V153.716C350.928 152.153 350.505 150.949 349.691 150.103C348.877 149.24 347.722 148.809 346.224 148.809ZM362.386 170V134.453H374.837C379.151 134.453 382.422 135.283 384.652 136.943C386.882 138.587 387.997 141.004 387.997 144.194C387.997 145.936 387.549 147.474 386.654 148.809C385.759 150.127 384.514 151.095 382.918 151.714C384.741 152.17 386.174 153.089 387.215 154.473C388.273 155.856 388.802 157.549 388.802 159.551C388.802 162.969 387.712 165.557 385.531 167.314C383.35 169.072 380.241 169.967 376.205 170H362.386ZM369.71 154.521V164.116H375.985C377.71 164.116 379.053 163.709 380.013 162.896C380.99 162.065 381.478 160.926 381.478 159.478C381.478 156.222 379.793 154.57 376.424 154.521H369.71ZM369.71 149.346H375.13C378.825 149.281 380.672 147.808 380.672 144.927C380.672 143.315 380.2 142.16 379.256 141.46C378.329 140.744 376.856 140.386 374.837 140.386H369.71V149.346ZM409.676 167.314C407.935 169.43 405.526 170.488 402.45 170.488C399.618 170.488 397.453 169.674 395.956 168.047C394.474 166.419 393.718 164.035 393.685 160.894V143.584H400.741V160.649C400.741 163.4 401.994 164.775 404.5 164.775C406.893 164.775 408.537 163.945 409.432 162.285V143.584H416.512V170H409.872L409.676 167.314ZM420.736 156.597C420.736 152.479 421.655 149.199 423.495 146.758C425.35 144.316 427.881 143.096 431.087 143.096C433.659 143.096 435.783 144.056 437.459 145.977V132.5H444.54V170H438.167L437.826 167.192C436.068 169.39 433.806 170.488 431.039 170.488C427.93 170.488 425.431 169.268 423.543 166.826C421.672 164.368 420.736 160.959 420.736 156.597ZM427.792 157.109C427.792 159.583 428.223 161.479 429.085 162.798C429.948 164.116 431.201 164.775 432.845 164.775C435.026 164.775 436.564 163.856 437.459 162.017V151.592C436.581 149.753 435.059 148.833 432.894 148.833C429.492 148.833 427.792 151.592 427.792 157.109ZM448.91 156.597C448.91 152.479 449.829 149.199 451.668 146.758C453.524 144.316 456.055 143.096 459.261 143.096C461.833 143.096 463.957 144.056 465.633 145.977V132.5H472.713V170H466.341L466 167.192C464.242 169.39 461.979 170.488 459.212 170.488C456.104 170.488 453.605 169.268 451.717 166.826C449.846 164.368 448.91 160.959 448.91 156.597ZM455.965 157.109C455.965 159.583 456.397 161.479 457.259 162.798C458.122 164.116 459.375 164.775 461.019 164.775C463.2 164.775 464.738 163.856 465.633 162.017V151.592C464.754 149.753 463.233 148.833 461.068 148.833C457.666 148.833 455.965 151.592 455.965 157.109ZM488.045 160.015L492.928 143.584H500.497L489.876 174.102L489.291 175.493C487.712 178.944 485.108 180.669 481.478 180.669C480.453 180.669 479.411 180.514 478.353 180.205V174.858L479.427 174.883C480.762 174.883 481.755 174.679 482.406 174.272C483.073 173.866 483.594 173.19 483.968 172.246L484.798 170.073L475.545 143.584H483.138L488.045 160.015Z" fill="#FF8B21"/>
<path d="M518.438 170H514.553V147.282H518.438V170ZM514.238 141.256C514.238 140.626 514.427 140.095 514.805 139.661C515.197 139.227 515.771 139.01 516.527 139.01C517.283 139.01 517.857 139.227 518.249 139.661C518.64 140.095 518.836 140.626 518.836 141.256C518.836 141.886 518.64 142.411 518.249 142.831C517.857 143.251 517.283 143.461 516.527 143.461C515.771 143.461 515.197 143.251 514.805 142.831C514.427 142.411 514.238 141.886 514.238 141.256ZM537.901 163.974C537.901 162.924 537.502 162.112 536.704 161.539C535.92 160.951 534.542 160.447 532.568 160.027C530.608 159.607 529.048 159.103 527.886 158.515C526.738 157.927 525.884 157.227 525.324 156.416C524.778 155.604 524.505 154.638 524.505 153.518C524.505 151.656 525.289 150.082 526.857 148.794C528.439 147.506 530.454 146.862 532.904 146.862C535.479 146.862 537.565 147.527 539.161 148.857C540.77 150.187 541.575 151.887 541.575 153.959H537.67C537.67 152.895 537.215 151.978 536.305 151.208C535.409 150.439 534.276 150.054 532.904 150.054C531.49 150.054 530.384 150.362 529.586 150.978C528.789 151.593 528.39 152.398 528.39 153.392C528.39 154.33 528.761 155.037 529.502 155.513C530.244 155.989 531.581 156.444 533.513 156.877C535.458 157.311 537.033 157.829 538.237 158.431C539.441 159.033 540.329 159.761 540.903 160.615C541.491 161.455 541.785 162.483 541.785 163.701C541.785 165.731 540.973 167.361 539.35 168.593C537.726 169.811 535.619 170.42 533.03 170.42C531.21 170.42 529.6 170.098 528.201 169.454C526.801 168.81 525.702 167.914 524.904 166.767C524.12 165.605 523.729 164.352 523.729 163.008H527.613C527.683 164.31 528.201 165.346 529.167 166.116C530.146 166.872 531.434 167.25 533.03 167.25C534.5 167.25 535.675 166.956 536.557 166.368C537.453 165.766 537.901 164.968 537.901 163.974ZM571.537 170C571.313 169.552 571.131 168.754 570.991 167.606C569.185 169.482 567.029 170.42 564.524 170.42C562.284 170.42 560.444 169.79 559.002 168.53C557.574 167.257 556.86 165.647 556.86 163.701C556.86 161.336 557.756 159.502 559.548 158.2C561.354 156.884 563.887 156.227 567.148 156.227H570.928V154.442C570.928 153.084 570.522 152.006 569.71 151.208C568.898 150.397 567.701 149.991 566.12 149.991C564.734 149.991 563.572 150.341 562.634 151.041C561.696 151.74 561.228 152.587 561.228 153.581H557.322C557.322 152.447 557.721 151.355 558.519 150.306C559.331 149.242 560.423 148.402 561.794 147.786C563.18 147.17 564.699 146.862 566.351 146.862C568.968 146.862 571.019 147.52 572.502 148.836C573.986 150.138 574.756 151.936 574.812 154.232V164.688C574.812 166.774 575.078 168.432 575.61 169.664V170H571.537ZM565.091 167.04C566.309 167.04 567.463 166.725 568.555 166.095C569.647 165.465 570.438 164.646 570.928 163.638V158.977H567.883C563.124 158.977 560.745 160.37 560.745 163.155C560.745 164.373 561.151 165.325 561.962 166.011C562.774 166.697 563.817 167.04 565.091 167.04ZM596.837 141.781V147.282H601.078V150.285H596.837V164.373C596.837 165.283 597.026 165.969 597.404 166.431C597.782 166.879 598.426 167.103 599.335 167.103C599.783 167.103 600.399 167.019 601.183 166.851V170C600.161 170.28 599.167 170.42 598.202 170.42C596.466 170.42 595.157 169.895 594.275 168.845C593.394 167.795 592.953 166.305 592.953 164.373V150.285H588.816V147.282H592.953V141.781H596.837ZM604.186 158.431C604.186 156.206 604.619 154.204 605.487 152.426C606.369 150.649 607.587 149.277 609.141 148.311C610.708 147.345 612.493 146.862 614.495 146.862C617.588 146.862 620.087 147.933 621.99 150.075C623.908 152.216 624.867 155.065 624.867 158.62V158.893C624.867 161.105 624.44 163.092 623.586 164.856C622.746 166.606 621.535 167.97 619.954 168.95C618.386 169.93 616.58 170.42 614.537 170.42C611.457 170.42 608.959 169.349 607.041 167.208C605.137 165.066 604.186 162.231 604.186 158.704V158.431ZM608.091 158.893C608.091 161.413 608.672 163.435 609.833 164.961C611.009 166.487 612.577 167.25 614.537 167.25C616.51 167.25 618.078 166.48 619.24 164.94C620.402 163.386 620.982 161.217 620.982 158.431C620.982 155.94 620.388 153.924 619.198 152.384C618.022 150.831 616.454 150.054 614.495 150.054C612.577 150.054 611.03 150.817 609.854 152.342C608.679 153.868 608.091 156.052 608.091 158.893ZM628.709 158.431C628.709 156.206 629.143 154.204 630.011 152.426C630.893 150.649 632.11 149.277 633.664 148.311C635.232 147.345 637.016 146.862 639.018 146.862C642.111 146.862 644.61 147.933 646.514 150.075C648.431 152.216 649.39 155.065 649.39 158.62V158.893C649.39 161.105 648.963 163.092 648.109 164.856C647.27 166.606 646.059 167.97 644.477 168.95C642.909 169.93 641.104 170.42 639.06 170.42C635.981 170.42 633.482 169.349 631.564 167.208C629.661 165.066 628.709 162.231 628.709 158.704V158.431ZM632.614 158.893C632.614 161.413 633.195 163.435 634.357 164.961C635.533 166.487 637.1 167.25 639.06 167.25C641.034 167.25 642.601 166.48 643.763 164.94C644.925 163.386 645.506 161.217 645.506 158.431C645.506 155.94 644.911 153.924 643.721 152.384C642.545 150.831 640.978 150.054 639.018 150.054C637.1 150.054 635.554 150.817 634.378 152.342C633.202 153.868 632.614 156.052 632.614 158.893ZM658.481 170H654.597V137.75H658.481V170ZM680.653 141.781V147.282H684.895V150.285H680.653V164.373C680.653 165.283 680.842 165.969 681.22 166.431C681.598 166.879 682.242 167.103 683.152 167.103C683.6 167.103 684.216 167.019 685 166.851V170C683.978 170.28 682.984 170.42 682.018 170.42C680.282 170.42 678.974 169.895 678.092 168.845C677.21 167.795 676.769 166.305 676.769 164.373V150.285H672.633V147.282H676.769V141.781H680.653ZM688.002 158.431C688.002 156.206 688.436 154.204 689.304 152.426C690.186 150.649 691.403 149.277 692.957 148.311C694.525 147.345 696.309 146.862 698.311 146.862C701.404 146.862 703.903 147.933 705.807 150.075C707.724 152.216 708.683 155.065 708.683 158.62V158.893C708.683 161.105 708.256 163.092 707.402 164.856C706.562 166.606 705.352 167.97 703.77 168.95C702.202 169.93 700.397 170.42 698.353 170.42C695.274 170.42 692.775 169.349 690.857 167.208C688.954 165.066 688.002 162.231 688.002 158.704V158.431ZM691.907 158.893C691.907 161.413 692.488 163.435 693.65 164.961C694.826 166.487 696.393 167.25 698.353 167.25C700.327 167.25 701.894 166.48 703.056 164.94C704.218 163.386 704.799 161.217 704.799 158.431C704.799 155.94 704.204 153.924 703.014 152.384C701.838 150.831 700.271 150.054 698.311 150.054C696.393 150.054 694.847 150.817 693.671 152.342C692.495 153.868 691.907 156.052 691.907 158.893ZM728.104 150.033C729.826 147.919 732.066 146.862 734.823 146.862C739.624 146.862 742.046 149.571 742.088 154.988V170H738.204V154.967C738.19 153.329 737.812 152.118 737.07 151.334C736.342 150.551 735.201 150.159 733.647 150.159C732.388 150.159 731.282 150.495 730.33 151.167C729.378 151.838 728.636 152.72 728.104 153.812V170H724.22V137.75H728.104V150.033ZM757.331 170.42C754.252 170.42 751.746 169.412 749.814 167.396C747.883 165.367 746.917 162.658 746.917 159.271V158.557C746.917 156.304 747.344 154.295 748.198 152.531C749.066 150.754 750.269 149.368 751.809 148.374C753.363 147.366 755.042 146.862 756.848 146.862C759.802 146.862 762.097 147.835 763.735 149.781C765.373 151.726 766.191 154.512 766.191 158.137V159.754H750.801C750.857 161.993 751.508 163.806 752.754 165.192C754.014 166.564 755.609 167.25 757.541 167.25C758.913 167.25 760.075 166.97 761.026 166.41C761.978 165.85 762.811 165.108 763.525 164.184L765.897 166.032C763.994 168.957 761.138 170.42 757.331 170.42ZM756.848 150.054C755.28 150.054 753.965 150.628 752.901 151.775C751.837 152.909 751.179 154.505 750.927 156.562H762.307V156.269C762.195 154.295 761.663 152.769 760.711 151.691C759.76 150.6 758.472 150.054 756.848 150.054ZM774.926 170H771.042V137.75H774.926V170ZM800.352 158.893C800.352 162.35 799.561 165.136 797.979 167.25C796.398 169.363 794.256 170.42 791.555 170.42C788.797 170.42 786.628 169.545 785.046 167.795V178.734H781.162V147.282H784.71L784.899 149.802C786.481 147.842 788.678 146.862 791.492 146.862C794.221 146.862 796.377 147.891 797.958 149.949C799.554 152.006 800.352 154.869 800.352 158.536V158.893ZM796.468 158.452C796.468 155.891 795.922 153.868 794.83 152.384C793.738 150.901 792.241 150.159 790.337 150.159C787.985 150.159 786.222 151.201 785.046 153.287V164.142C786.208 166.214 787.985 167.25 790.379 167.25C792.241 167.25 793.717 166.515 794.809 165.045C795.915 163.561 796.468 161.364 796.468 158.452ZM823.406 164.31L828.697 147.282H832.854L823.721 173.506C822.307 177.286 820.06 179.175 816.981 179.175L816.246 179.112L814.797 178.839V175.69L815.847 175.774C817.163 175.774 818.185 175.508 818.913 174.976C819.654 174.444 820.263 173.471 820.739 172.058L821.6 169.748L813.496 147.282H817.737L823.406 164.31ZM834.975 158.431C834.975 156.206 835.409 154.204 836.276 152.426C837.158 150.649 838.376 149.277 839.93 148.311C841.497 147.345 843.282 146.862 845.284 146.862C848.377 146.862 850.876 147.933 852.779 150.075C854.697 152.216 855.656 155.065 855.656 158.62V158.893C855.656 161.105 855.229 163.092 854.375 164.856C853.535 166.606 852.324 167.97 850.743 168.95C849.175 169.93 847.369 170.42 845.326 170.42C842.246 170.42 839.748 169.349 837.83 167.208C835.926 165.066 834.975 162.231 834.975 158.704V158.431ZM838.88 158.893C838.88 161.413 839.461 163.435 840.623 164.961C841.798 166.487 843.366 167.25 845.326 167.25C847.299 167.25 848.867 166.48 850.029 164.94C851.191 163.386 851.771 161.217 851.771 158.431C851.771 155.94 851.177 153.924 849.987 152.384C848.811 150.831 847.243 150.054 845.284 150.054C843.366 150.054 841.819 150.817 840.644 152.342C839.468 153.868 838.88 156.052 838.88 158.893ZM874.552 167.753C873.041 169.531 870.822 170.42 867.896 170.42C865.475 170.42 863.627 169.72 862.354 168.32C861.094 166.907 860.457 164.821 860.443 162.063V147.282H864.327V161.958C864.327 165.402 865.727 167.124 868.526 167.124C871.494 167.124 873.467 166.018 874.447 163.806V147.282H878.332V170H874.636L874.552 167.753ZM893.974 158.452C893.974 154.967 894.799 152.167 896.451 150.054C898.103 147.926 900.265 146.862 902.939 146.862C905.598 146.862 907.705 147.772 909.259 149.592V137.75H913.143V170H909.574L909.385 167.564C907.831 169.468 905.668 170.42 902.897 170.42C900.265 170.42 898.117 169.342 896.451 167.187C894.799 165.031 893.974 162.217 893.974 158.746V158.452ZM897.858 158.893C897.858 161.469 898.39 163.484 899.454 164.94C900.517 166.396 901.987 167.124 903.863 167.124C906.326 167.124 908.125 166.018 909.259 163.806V153.371C908.097 151.229 906.312 150.159 903.905 150.159C902.001 150.159 900.517 150.894 899.454 152.363C898.39 153.833 897.858 156.01 897.858 158.893ZM928.617 170.42C925.538 170.42 923.032 169.412 921.101 167.396C919.169 165.367 918.203 162.658 918.203 159.271V158.557C918.203 156.304 918.63 154.295 919.484 152.531C920.352 150.754 921.556 149.368 923.095 148.374C924.649 147.366 926.329 146.862 928.134 146.862C931.088 146.862 933.383 147.835 935.021 149.781C936.659 151.726 937.478 154.512 937.478 158.137V159.754H922.087C922.143 161.993 922.794 163.806 924.04 165.192C925.3 166.564 926.896 167.25 928.827 167.25C930.199 167.25 931.361 166.97 932.312 166.41C933.264 165.85 934.097 165.108 934.811 164.184L937.184 166.032C935.28 168.957 932.424 170.42 928.617 170.42ZM928.134 150.054C926.567 150.054 925.251 150.628 924.187 151.775C923.123 152.909 922.465 154.505 922.213 156.562H933.593V156.269C933.481 154.295 932.949 152.769 931.998 151.691C931.046 150.6 929.758 150.054 928.134 150.054ZM955.219 163.974C955.219 162.924 954.82 162.112 954.022 161.539C953.239 160.951 951.86 160.447 949.886 160.027C947.927 159.607 946.366 159.103 945.204 158.515C944.056 157.927 943.202 157.227 942.643 156.416C942.097 155.604 941.824 154.638 941.824 153.518C941.824 151.656 942.608 150.082 944.175 148.794C945.757 147.506 947.773 146.862 950.222 146.862C952.798 146.862 954.883 147.527 956.479 148.857C958.089 150.187 958.894 151.887 958.894 153.959H954.988C954.988 152.895 954.533 151.978 953.624 151.208C952.728 150.439 951.594 150.054 950.222 150.054C948.808 150.054 947.703 150.362 946.905 150.978C946.107 151.593 945.708 152.398 945.708 153.392C945.708 154.33 946.079 155.037 946.821 155.513C947.563 155.989 948.899 156.444 950.831 156.877C952.777 157.311 954.351 157.829 955.555 158.431C956.759 159.033 957.648 159.761 958.222 160.615C958.81 161.455 959.104 162.483 959.104 163.701C959.104 165.731 958.292 167.361 956.668 168.593C955.044 169.811 952.938 170.42 950.348 170.42C948.528 170.42 946.919 170.098 945.519 169.454C944.119 168.81 943.021 167.914 942.223 166.767C941.439 165.605 941.047 164.352 941.047 163.008H944.931C945.001 164.31 945.519 165.346 946.485 166.116C947.465 166.872 948.752 167.25 950.348 167.25C951.818 167.25 952.994 166.956 953.875 166.368C954.771 165.766 955.219 164.968 955.219 163.974ZM968.384 170H964.5V147.282H968.384V170ZM964.185 141.256C964.185 140.626 964.374 140.095 964.751 139.661C965.143 139.227 965.717 139.01 966.473 139.01C967.229 139.01 967.803 139.227 968.195 139.661C968.587 140.095 968.783 140.626 968.783 141.256C968.783 141.886 968.587 142.411 968.195 142.831C967.803 143.251 967.229 143.461 966.473 143.461C965.717 143.461 965.143 143.251 964.751 142.831C964.374 142.411 964.185 141.886 964.185 141.256ZM973.696 158.452C973.696 154.911 974.515 152.097 976.152 150.012C977.79 147.912 979.96 146.862 982.661 146.862C985.433 146.862 987.595 147.842 989.149 149.802L989.338 147.282H992.886V169.454C992.886 172.394 992.011 174.71 990.262 176.404C988.526 178.097 986.188 178.944 983.249 178.944C981.611 178.944 980.009 178.594 978.441 177.895C976.873 177.195 975.676 176.236 974.851 175.018L976.866 172.688C978.532 174.745 980.569 175.774 982.976 175.774C984.866 175.774 986.335 175.242 987.385 174.178C988.449 173.114 988.981 171.617 988.981 169.685V167.732C987.427 169.524 985.307 170.42 982.619 170.42C979.96 170.42 977.804 169.349 976.152 167.208C974.515 165.066 973.696 162.147 973.696 158.452ZM977.601 158.893C977.601 161.455 978.126 163.47 979.176 164.94C980.226 166.396 981.695 167.124 983.585 167.124C986.035 167.124 987.833 166.011 988.981 163.785V153.413C987.791 151.243 986.007 150.159 983.627 150.159C981.737 150.159 980.261 150.894 979.197 152.363C978.133 153.833 977.601 156.01 977.601 158.893ZM1002.44 147.282L1002.57 150.138C1004.3 147.954 1006.57 146.862 1009.37 146.862C1014.17 146.862 1016.59 149.571 1016.63 154.988V170H1012.75V154.967C1012.73 153.329 1012.36 152.118 1011.61 151.334C1010.89 150.551 1009.75 150.159 1008.19 150.159C1006.93 150.159 1005.83 150.495 1004.88 151.167C1003.92 151.838 1003.18 152.72 1002.65 153.812V170H998.765V147.282H1002.44ZM1040.59 164.31L1045.88 147.282H1050.04L1040.9 173.506C1039.49 177.286 1037.24 179.175 1034.16 179.175L1033.43 179.112L1031.98 178.839V175.69L1033.03 175.774C1034.35 175.774 1035.37 175.508 1036.1 174.976C1036.84 174.444 1037.45 173.471 1037.92 172.058L1038.78 169.748L1030.68 147.282H1034.92L1040.59 164.31ZM1052.16 158.431C1052.16 156.206 1052.59 154.204 1053.46 152.426C1054.34 150.649 1055.56 149.277 1057.11 148.311C1058.68 147.345 1060.47 146.862 1062.47 146.862C1065.56 146.862 1068.06 147.933 1069.96 150.075C1071.88 152.216 1072.84 155.065 1072.84 158.62V158.893C1072.84 161.105 1072.41 163.092 1071.56 164.856C1070.72 166.606 1069.51 167.97 1067.93 168.95C1066.36 169.93 1064.55 170.42 1062.51 170.42C1059.43 170.42 1056.93 169.349 1055.01 167.208C1053.11 165.066 1052.16 162.231 1052.16 158.704V158.431ZM1056.06 158.893C1056.06 161.413 1056.64 163.435 1057.81 164.961C1058.98 166.487 1060.55 167.25 1062.51 167.25C1064.48 167.25 1066.05 166.48 1067.21 164.94C1068.37 163.386 1068.96 161.217 1068.96 158.431C1068.96 155.94 1068.36 153.924 1067.17 152.384C1065.99 150.831 1064.43 150.054 1062.47 150.054C1060.55 150.054 1059 150.817 1057.83 152.342C1056.65 153.868 1056.06 156.052 1056.06 158.893ZM1091.74 167.753C1090.22 169.531 1088.01 170.42 1085.08 170.42C1082.66 170.42 1080.81 169.72 1079.54 168.32C1078.28 166.907 1077.64 164.821 1077.63 162.063V147.282H1081.51V161.958C1081.51 165.402 1082.91 167.124 1085.71 167.124C1088.68 167.124 1090.65 166.018 1091.63 163.806V147.282H1095.52V170H1091.82L1091.74 167.753ZM1112.42 150.768C1111.83 150.67 1111.19 150.621 1110.51 150.621C1107.96 150.621 1106.23 151.705 1105.32 153.875V170H1101.44V147.282H1105.22L1105.28 149.907C1106.55 147.877 1108.36 146.862 1110.7 146.862C1111.45 146.862 1112.03 146.96 1112.42 147.156V150.768ZM1131.94 141.781V147.282H1136.18V150.285H1131.94V164.373C1131.94 165.283 1132.13 165.969 1132.51 166.431C1132.89 166.879 1133.53 167.103 1134.44 167.103C1134.89 167.103 1135.51 167.019 1136.29 166.851V170C1135.27 170.28 1134.27 170.42 1133.31 170.42C1131.57 170.42 1130.26 169.895 1129.38 168.845C1128.5 167.795 1128.06 166.305 1128.06 164.373V150.285H1123.92V147.282H1128.06V141.781H1131.94ZM1144.96 170H1141.08V147.282H1144.96V170ZM1140.76 141.256C1140.76 140.626 1140.95 140.095 1141.33 139.661C1141.72 139.227 1142.29 139.01 1143.05 139.01C1143.81 139.01 1144.38 139.227 1144.77 139.661C1145.16 140.095 1145.36 140.626 1145.36 141.256C1145.36 141.886 1145.16 142.411 1144.77 142.831C1144.38 143.251 1143.81 143.461 1143.05 143.461C1142.29 143.461 1141.72 143.251 1141.33 142.831C1140.95 142.411 1140.76 141.886 1140.76 141.256ZM1154.85 147.282L1154.96 149.802C1156.62 147.842 1158.87 146.862 1161.69 146.862C1164.87 146.862 1167.03 148.08 1168.18 150.516C1168.94 149.424 1169.92 148.542 1171.12 147.87C1172.34 147.198 1173.77 146.862 1175.43 146.862C1180.41 146.862 1182.94 149.501 1183.03 154.778V170H1179.14V155.009C1179.14 153.385 1178.77 152.174 1178.03 151.376C1177.29 150.565 1176.04 150.159 1174.29 150.159C1172.85 150.159 1171.65 150.593 1170.7 151.46C1169.75 152.314 1169.2 153.469 1169.04 154.925V170H1165.14V155.114C1165.14 151.81 1163.52 150.159 1160.29 150.159C1157.74 150.159 1156 151.243 1155.06 153.413V170H1151.18V147.282H1154.85ZM1198.33 170.42C1195.25 170.42 1192.75 169.412 1190.82 167.396C1188.88 165.367 1187.92 162.658 1187.92 159.271V158.557C1187.92 156.304 1188.35 154.295 1189.2 152.531C1190.07 150.754 1191.27 149.368 1192.81 148.374C1194.36 147.366 1196.04 146.862 1197.85 146.862C1200.8 146.862 1203.1 147.835 1204.74 149.781C1206.37 151.726 1207.19 154.512 1207.19 158.137V159.754H1191.8C1191.86 161.993 1192.51 163.806 1193.76 165.192C1195.02 166.564 1196.61 167.25 1198.54 167.25C1199.91 167.25 1201.08 166.97 1202.03 166.41C1202.98 165.85 1203.81 165.108 1204.53 164.184L1206.9 166.032C1205 168.957 1202.14 170.42 1198.33 170.42ZM1197.85 150.054C1196.28 150.054 1194.97 150.628 1193.9 151.775C1192.84 152.909 1192.18 154.505 1191.93 156.562H1203.31V156.269C1203.2 154.295 1202.67 152.769 1201.71 151.691C1200.76 150.6 1199.47 150.054 1197.85 150.054ZM1211.79 167.963C1211.79 167.292 1211.99 166.732 1212.38 166.284C1212.79 165.836 1213.39 165.612 1214.19 165.612C1214.98 165.612 1215.58 165.836 1215.99 166.284C1216.41 166.732 1216.62 167.292 1216.62 167.963C1216.62 168.607 1216.41 169.146 1215.99 169.58C1215.58 170.014 1214.98 170.231 1214.19 170.231C1213.39 170.231 1212.79 170.014 1212.38 169.58C1211.99 169.146 1211.79 168.607 1211.79 167.963ZM185.71 278.3C185.333 281.533 184.136 284.032 182.12 285.795C180.118 287.545 177.452 288.42 174.121 288.42C170.509 288.42 167.612 287.125 165.428 284.536C163.259 281.946 162.174 278.482 162.174 274.143V271.203C162.174 268.362 162.678 265.863 163.686 263.708C164.707 261.552 166.149 259.9 168.011 258.752C169.872 257.591 172.028 257.01 174.478 257.01C177.725 257.01 180.328 257.92 182.288 259.739C184.248 261.545 185.389 264.05 185.71 267.256H181.658C181.308 264.82 180.545 263.057 179.37 261.965C178.208 260.873 176.577 260.327 174.478 260.327C171.902 260.327 169.879 261.279 168.41 263.183C166.954 265.086 166.226 267.795 166.226 271.308V274.269C166.226 277.586 166.919 280.224 168.305 282.184C169.69 284.144 171.629 285.124 174.121 285.124C176.36 285.124 178.075 284.62 179.265 283.612C180.468 282.59 181.266 280.819 181.658 278.3H185.71ZM194.844 288H190.959V255.75H194.844V288ZM205.3 288H201.416V265.282H205.3V288ZM201.101 259.256C201.101 258.626 201.29 258.095 201.667 257.661C202.059 257.227 202.633 257.01 203.389 257.01C204.145 257.01 204.719 257.227 205.111 257.661C205.503 258.095 205.699 258.626 205.699 259.256C205.699 259.886 205.503 260.411 205.111 260.831C204.719 261.251 204.145 261.461 203.389 261.461C202.633 261.461 202.059 261.251 201.667 260.831C201.29 260.411 201.101 259.886 201.101 259.256ZM220.648 285.25C222.034 285.25 223.244 284.83 224.28 283.99C225.316 283.15 225.89 282.1 226.002 280.84H229.676C229.606 282.142 229.158 283.381 228.333 284.557C227.507 285.732 226.401 286.67 225.015 287.37C223.643 288.07 222.188 288.42 220.648 288.42C217.555 288.42 215.091 287.391 213.257 285.333C211.438 283.262 210.528 280.434 210.528 276.851V276.2C210.528 273.989 210.934 272.022 211.746 270.3C212.557 268.579 213.719 267.242 215.231 266.29C216.757 265.338 218.555 264.862 220.627 264.862C223.174 264.862 225.288 265.625 226.968 267.151C228.661 268.677 229.564 270.657 229.676 273.093H226.002C225.89 271.623 225.33 270.419 224.322 269.481C223.328 268.53 222.097 268.054 220.627 268.054C218.653 268.054 217.121 268.768 216.029 270.195C214.951 271.609 214.412 273.66 214.412 276.347V277.082C214.412 279.7 214.951 281.715 216.029 283.129C217.107 284.543 218.646 285.25 220.648 285.25ZM240.384 277.481L237.949 280.021V288H234.064V255.75H237.949V275.255L240.027 272.757L247.103 265.282H251.827L242.988 274.772L252.856 288H248.3L240.384 277.481ZM271.773 259.781V265.282H276.015V268.285H271.773V282.373C271.773 283.283 271.962 283.969 272.34 284.431C272.718 284.879 273.362 285.103 274.272 285.103C274.72 285.103 275.336 285.019 276.12 284.851V288C275.098 288.28 274.104 288.42 273.138 288.42C271.403 288.42 270.094 287.895 269.212 286.845C268.33 285.795 267.889 284.305 267.889 282.373V268.285H263.753V265.282H267.889V259.781H271.773ZM284.455 268.033C286.177 265.919 288.416 264.862 291.174 264.862C295.975 264.862 298.396 267.571 298.438 272.988V288H294.554V272.967C294.54 271.329 294.162 270.118 293.42 269.334C292.693 268.551 291.552 268.159 289.998 268.159C288.738 268.159 287.632 268.495 286.681 269.167C285.729 269.838 284.987 270.72 284.455 271.812V288H280.571V255.75H284.455V268.033ZM313.682 288.42C310.602 288.42 308.097 287.412 306.165 285.396C304.233 283.367 303.268 280.658 303.268 277.271V276.557C303.268 274.304 303.694 272.295 304.548 270.531C305.416 268.754 306.62 267.368 308.16 266.374C309.713 265.366 311.393 264.862 313.199 264.862C316.152 264.862 318.448 265.835 320.085 267.781C321.723 269.726 322.542 272.512 322.542 276.137V277.754H307.152C307.208 279.993 307.859 281.806 309.104 283.192C310.364 284.564 311.96 285.25 313.892 285.25C315.263 285.25 316.425 284.97 317.377 284.41C318.329 283.85 319.162 283.108 319.875 282.184L322.248 284.032C320.344 286.957 317.489 288.42 313.682 288.42ZM313.199 268.054C311.631 268.054 310.315 268.628 309.251 269.775C308.188 270.909 307.53 272.505 307.278 274.562H318.658V274.269C318.546 272.295 318.014 270.769 317.062 269.691C316.11 268.6 314.822 268.054 313.199 268.054ZM653.634 276.893C653.634 280.364 652.836 283.157 651.241 285.271C649.645 287.37 647.503 288.42 644.816 288.42C641.946 288.42 639.728 287.405 638.16 285.375L637.971 288H634.402V255.75H638.286V267.781C639.854 265.835 642.016 264.862 644.774 264.862C647.531 264.862 649.694 265.905 651.262 267.991C652.843 270.076 653.634 272.932 653.634 276.557V276.893ZM649.75 276.452C649.75 273.807 649.239 271.763 648.217 270.321C647.195 268.88 645.726 268.159 643.808 268.159C641.247 268.159 639.406 269.348 638.286 271.728V281.554C639.476 283.934 641.331 285.124 643.85 285.124C645.712 285.124 647.16 284.403 648.196 282.961C649.232 281.519 649.75 279.35 649.75 276.452ZM667.975 288.42C664.895 288.42 662.39 287.412 660.458 285.396C658.526 283.367 657.561 280.658 657.561 277.271V276.557C657.561 274.304 657.987 272.295 658.841 270.531C659.709 268.754 660.913 267.368 662.453 266.374C664.006 265.366 665.686 264.862 667.492 264.862C670.445 264.862 672.741 265.835 674.378 267.781C676.016 269.726 676.835 272.512 676.835 276.137V277.754H661.445C661.501 279.993 662.152 281.806 663.397 283.192C664.657 284.564 666.253 285.25 668.185 285.25C669.556 285.25 670.718 284.97 671.67 284.41C672.622 283.85 673.455 283.108 674.168 282.184L676.541 284.032C674.637 286.957 671.782 288.42 667.975 288.42ZM667.492 268.054C665.924 268.054 664.608 268.628 663.544 269.775C662.481 270.909 661.823 272.505 661.571 274.562H672.951V274.269C672.839 272.295 672.307 270.769 671.355 269.691C670.403 268.6 669.115 268.054 667.492 268.054ZM685.569 288H681.685V255.75H685.569V288ZM690.776 276.431C690.776 274.206 691.21 272.204 692.078 270.426C692.96 268.649 694.178 267.277 695.731 266.311C697.299 265.345 699.084 264.862 701.085 264.862C704.179 264.862 706.677 265.933 708.581 268.075C710.499 270.216 711.458 273.065 711.458 276.62V276.893C711.458 279.105 711.031 281.092 710.177 282.856C709.337 284.606 708.126 285.97 706.544 286.95C704.977 287.93 703.171 288.42 701.127 288.42C698.048 288.42 695.549 287.349 693.632 285.208C691.728 283.066 690.776 280.231 690.776 276.704V276.431ZM694.682 276.893C694.682 279.413 695.263 281.435 696.424 282.961C697.6 284.487 699.168 285.25 701.127 285.25C703.101 285.25 704.669 284.48 705.831 282.94C706.992 281.386 707.573 279.217 707.573 276.431C707.573 273.94 706.978 271.924 705.789 270.384C704.613 268.831 703.045 268.054 701.085 268.054C699.168 268.054 697.621 268.817 696.445 270.342C695.27 271.868 694.682 274.052 694.682 276.893ZM736.443 282.646L740.81 265.282H744.694L738.081 288H734.931L729.409 270.783L724.034 288H720.885L714.292 265.282H718.155L722.627 282.289L727.918 265.282H731.047L736.443 282.646ZM764.599 259.781V265.282H768.84V268.285H764.599V282.373C764.599 283.283 764.788 283.969 765.166 284.431C765.543 284.879 766.187 285.103 767.097 285.103C767.545 285.103 768.161 285.019 768.945 284.851V288C767.923 288.28 766.929 288.42 765.963 288.42C764.228 288.42 762.919 287.895 762.037 286.845C761.155 285.795 760.714 284.305 760.714 282.373V268.285H756.578V265.282H760.714V259.781H764.599ZM771.947 276.431C771.947 274.206 772.381 272.204 773.249 270.426C774.131 268.649 775.349 267.277 776.902 266.311C778.47 265.345 780.255 264.862 782.256 264.862C785.35 264.862 787.848 265.933 789.752 268.075C791.67 270.216 792.628 273.065 792.628 276.62V276.893C792.628 279.105 792.201 281.092 791.348 282.856C790.508 284.606 789.297 285.97 787.715 286.95C786.148 287.93 784.342 288.42 782.298 288.42C779.219 288.42 776.72 287.349 774.803 285.208C772.899 283.066 771.947 280.231 771.947 276.704V276.431ZM775.853 276.893C775.853 279.413 776.433 281.435 777.595 282.961C778.771 284.487 780.339 285.25 782.298 285.25C784.272 285.25 785.84 284.48 787.001 282.94C788.163 281.386 788.744 279.217 788.744 276.431C788.744 273.94 788.149 271.924 786.959 270.384C785.784 268.831 784.216 268.054 782.256 268.054C780.339 268.054 778.792 268.817 777.616 270.342C776.44 271.868 775.853 274.052 775.853 276.893ZM809.467 288V268.285H805.877V265.282H809.467V263.351C809.467 260.817 810.188 258.843 811.63 257.43C813.086 256.016 815.136 255.309 817.782 255.309C819.349 255.309 821.33 255.736 823.724 256.59L823.073 259.865C821.323 259.165 819.657 258.815 818.076 258.815C816.41 258.815 815.206 259.193 814.464 259.949C813.736 260.691 813.373 261.811 813.373 263.309V265.282H818.013V268.285H813.373V288H809.467ZM825.655 288H821.75V265.282H825.655V288ZM835.649 265.282L835.775 268.138C837.511 265.954 839.779 264.862 842.578 264.862C847.379 264.862 849.801 267.571 849.843 272.988V288H845.958V272.967C845.944 271.329 845.567 270.118 844.825 269.334C844.097 268.551 842.956 268.159 841.402 268.159C840.143 268.159 839.037 268.495 838.085 269.167C837.133 269.838 836.391 270.72 835.859 271.812V288H831.975V265.282H835.649ZM854.756 276.452C854.756 272.967 855.582 270.167 857.233 268.054C858.885 265.926 861.048 264.862 863.721 264.862C866.381 264.862 868.487 265.772 870.041 267.592V255.75H873.925V288H870.356L870.167 285.564C868.613 287.468 866.451 288.42 863.679 288.42C861.048 288.42 858.899 287.342 857.233 285.187C855.582 283.031 854.756 280.217 854.756 276.746V276.452ZM858.64 276.893C858.64 279.469 859.172 281.484 860.236 282.94C861.3 284.396 862.769 285.124 864.645 285.124C867.109 285.124 868.907 284.018 870.041 281.806V271.371C868.879 269.229 867.095 268.159 864.687 268.159C862.783 268.159 861.3 268.894 860.236 270.363C859.172 271.833 858.64 274.01 858.64 276.893ZM889.609 276.431C889.609 274.206 890.043 272.204 890.911 270.426C891.793 268.649 893.011 267.277 894.564 266.311C896.132 265.345 897.917 264.862 899.918 264.862C903.012 264.862 905.51 265.933 907.414 268.075C909.332 270.216 910.291 273.065 910.291 276.62V276.893C910.291 279.105 909.864 281.092 909.01 282.856C908.17 284.606 906.959 285.97 905.377 286.95C903.81 287.93 902.004 288.42 899.96 288.42C896.881 288.42 894.382 287.349 892.465 285.208C890.561 283.066 889.609 280.231 889.609 276.704V276.431ZM893.515 276.893C893.515 279.413 894.096 281.435 895.257 282.961C896.433 284.487 898.001 285.25 899.96 285.25C901.934 285.25 903.502 284.48 904.664 282.94C905.825 281.386 906.406 279.217 906.406 276.431C906.406 273.94 905.811 271.924 904.622 270.384C903.446 268.831 901.878 268.054 899.918 268.054C898.001 268.054 896.454 268.817 895.278 270.342C894.103 271.868 893.515 274.052 893.515 276.893ZM929.187 285.753C927.675 287.531 925.457 288.42 922.531 288.42C920.11 288.42 918.262 287.72 916.988 286.32C915.729 284.907 915.092 282.821 915.078 280.063V265.282H918.962V279.958C918.962 283.402 920.362 285.124 923.161 285.124C926.129 285.124 928.102 284.018 929.082 281.806V265.282H932.966V288H929.271L929.187 285.753ZM944.157 259.781V265.282H948.398V268.285H944.157V282.373C944.157 283.283 944.346 283.969 944.724 284.431C945.102 284.879 945.746 285.103 946.656 285.103C947.104 285.103 947.72 285.019 948.503 284.851V288C947.482 288.28 946.488 288.42 945.522 288.42C943.786 288.42 942.478 287.895 941.596 286.845C940.714 285.795 940.273 284.305 940.273 282.373V268.285H936.137V265.282H940.273V259.781H944.157ZM983.735 282.646L988.102 265.282H991.986L985.373 288H982.223L976.701 270.783L971.326 288H968.177L961.584 265.282H965.447L969.919 282.289L975.21 265.282H978.339L983.735 282.646ZM999.839 268.033C1001.56 265.919 1003.8 264.862 1006.56 264.862C1011.36 264.862 1013.78 267.571 1013.82 272.988V288H1009.94V272.967C1009.92 271.329 1009.55 270.118 1008.8 269.334C1008.08 268.551 1006.94 268.159 1005.38 268.159C1004.12 268.159 1003.02 268.495 1002.06 269.167C1001.11 269.838 1000.37 270.72 999.839 271.812V288H995.955V255.75H999.839V268.033ZM1033.66 288C1033.44 287.552 1033.26 286.754 1033.12 285.606C1031.31 287.482 1029.16 288.42 1026.65 288.42C1024.41 288.42 1022.57 287.79 1021.13 286.53C1019.7 285.257 1018.99 283.647 1018.99 281.701C1018.99 279.336 1019.88 277.502 1021.67 276.2C1023.48 274.884 1026.01 274.227 1029.28 274.227H1033.05V272.442C1033.05 271.084 1032.65 270.006 1031.84 269.208C1031.03 268.397 1029.83 267.991 1028.25 267.991C1026.86 267.991 1025.7 268.341 1024.76 269.041C1023.82 269.74 1023.35 270.587 1023.35 271.581H1019.45C1019.45 270.447 1019.85 269.355 1020.65 268.306C1021.46 267.242 1022.55 266.402 1023.92 265.786C1025.31 265.17 1026.83 264.862 1028.48 264.862C1031.1 264.862 1033.15 265.52 1034.63 266.836C1036.11 268.138 1036.88 269.936 1036.94 272.232V282.688C1036.94 284.774 1037.2 286.432 1037.74 287.664V288H1033.66ZM1027.22 285.04C1028.44 285.04 1029.59 284.725 1030.68 284.095C1031.77 283.465 1032.56 282.646 1033.05 281.638V276.977H1030.01C1025.25 276.977 1022.87 278.37 1022.87 281.155C1022.87 282.373 1023.28 283.325 1024.09 284.011C1024.9 284.697 1025.94 285.04 1027.22 285.04ZM1048.3 259.781V265.282H1052.54V268.285H1048.3V282.373C1048.3 283.283 1048.49 283.969 1048.86 284.431C1049.24 284.879 1049.89 285.103 1050.8 285.103C1051.24 285.103 1051.86 285.019 1052.64 284.851V288C1051.62 288.28 1050.63 288.42 1049.66 288.42C1047.93 288.42 1046.62 287.895 1045.74 286.845C1044.85 285.795 1044.41 284.305 1044.41 282.373V268.285H1040.28V265.282H1044.41V259.781H1048.3ZM1075.19 282.31L1080.48 265.282H1084.64L1075.51 291.506C1074.1 295.286 1071.85 297.175 1068.77 297.175L1068.03 297.112L1066.59 296.839V293.69L1067.64 293.774C1068.95 293.774 1069.97 293.508 1070.7 292.976C1071.44 292.444 1072.05 291.471 1072.53 290.058L1073.39 287.748L1065.28 265.282H1069.52L1075.19 282.31ZM1086.76 276.431C1086.76 274.206 1087.2 272.204 1088.06 270.426C1088.95 268.649 1090.16 267.277 1091.72 266.311C1093.29 265.345 1095.07 264.862 1097.07 264.862C1100.17 264.862 1102.66 265.933 1104.57 268.075C1106.49 270.216 1107.44 273.065 1107.44 276.62V276.893C1107.44 279.105 1107.02 281.092 1106.16 282.856C1105.32 284.606 1104.11 285.97 1102.53 286.95C1100.96 287.93 1099.16 288.42 1097.11 288.42C1094.03 288.42 1091.54 287.349 1089.62 285.208C1087.71 283.066 1086.76 280.231 1086.76 276.704V276.431ZM1090.67 276.893C1090.67 279.413 1091.25 281.435 1092.41 282.961C1093.59 284.487 1095.15 285.25 1097.11 285.25C1099.09 285.25 1100.66 284.48 1101.82 282.94C1102.98 281.386 1103.56 279.217 1103.56 276.431C1103.56 273.94 1102.96 271.924 1101.77 270.384C1100.6 268.831 1099.03 268.054 1097.07 268.054C1095.15 268.054 1093.61 268.817 1092.43 270.342C1091.26 271.868 1090.67 274.052 1090.67 276.893ZM1126.34 285.753C1124.83 287.531 1122.61 288.42 1119.68 288.42C1117.26 288.42 1115.42 287.72 1114.14 286.32C1112.88 284.907 1112.24 282.821 1112.23 280.063V265.282H1116.12V279.958C1116.12 283.402 1117.51 285.124 1120.31 285.124C1123.28 285.124 1125.26 284.018 1126.24 281.806V265.282H1130.12V288H1126.42L1126.34 285.753ZM1136.31 266.038L1134.11 264.526C1135.41 262.707 1136.08 260.789 1136.12 258.773V255.75H1139.97V258.479C1139.95 259.879 1139.6 261.279 1138.92 262.679C1138.25 264.064 1137.38 265.184 1136.31 266.038ZM1155.63 268.768C1155.04 268.67 1154.41 268.621 1153.72 268.621C1151.17 268.621 1149.44 269.705 1148.53 271.875V288H1144.65V265.282H1148.43L1148.49 267.907C1149.76 265.877 1151.57 264.862 1153.91 264.862C1154.66 264.862 1155.24 264.96 1155.63 265.156V268.768ZM1168.23 288.42C1165.15 288.42 1162.64 287.412 1160.71 285.396C1158.78 283.367 1157.81 280.658 1157.81 277.271V276.557C1157.81 274.304 1158.24 272.295 1159.09 270.531C1159.96 268.754 1161.17 267.368 1162.71 266.374C1164.26 265.366 1165.94 264.862 1167.74 264.862C1170.7 264.862 1172.99 265.835 1174.63 267.781C1176.27 269.726 1177.09 272.512 1177.09 276.137V277.754H1161.7C1161.75 279.993 1162.4 281.806 1163.65 283.192C1164.91 284.564 1166.51 285.25 1168.44 285.25C1169.81 285.25 1170.97 284.97 1171.92 284.41C1172.87 283.85 1173.71 283.108 1174.42 282.184L1176.79 284.032C1174.89 286.957 1172.03 288.42 1168.23 288.42ZM1167.74 268.054C1166.18 268.054 1164.86 268.628 1163.8 269.775C1162.73 270.909 1162.08 272.505 1161.82 274.562H1173.2V274.269C1173.09 272.295 1172.56 270.769 1171.61 269.691C1170.66 268.6 1169.37 268.054 1167.74 268.054ZM1191.34 276.452C1191.34 272.911 1192.16 270.097 1193.8 268.012C1195.44 265.912 1197.61 264.862 1200.31 264.862C1203.08 264.862 1205.24 265.842 1206.8 267.802L1206.99 265.282H1210.53V287.454C1210.53 290.394 1209.66 292.71 1207.91 294.404C1206.17 296.097 1203.84 296.944 1200.9 296.944C1199.26 296.944 1197.66 296.594 1196.09 295.895C1194.52 295.195 1193.32 294.236 1192.5 293.018L1194.51 290.688C1196.18 292.745 1198.22 293.774 1200.62 293.774C1202.51 293.774 1203.98 293.242 1205.03 292.178C1206.1 291.114 1206.63 289.617 1206.63 287.685V285.732C1205.08 287.524 1202.96 288.42 1200.27 288.42C1197.61 288.42 1195.45 287.349 1193.8 285.208C1192.16 283.066 1191.34 280.147 1191.34 276.452ZM1195.25 276.893C1195.25 279.455 1195.77 281.47 1196.82 282.94C1197.87 284.396 1199.34 285.124 1201.23 285.124C1203.68 285.124 1205.48 284.011 1206.63 281.785V271.413C1205.44 269.243 1203.65 268.159 1201.28 268.159C1199.39 268.159 1197.91 268.894 1196.85 270.363C1195.78 271.833 1195.25 274.01 1195.25 276.893ZM1215.38 276.431C1215.38 274.206 1215.82 272.204 1216.69 270.426C1217.57 268.649 1218.79 267.277 1220.34 266.311C1221.91 265.345 1223.69 264.862 1225.69 264.862C1228.79 264.862 1231.29 265.933 1233.19 268.075C1235.11 270.216 1236.07 273.065 1236.07 276.62V276.893C1236.07 279.105 1235.64 281.092 1234.79 282.856C1233.95 284.606 1232.73 285.97 1231.15 286.95C1229.59 287.93 1227.78 288.42 1225.74 288.42C1222.66 288.42 1220.16 287.349 1218.24 285.208C1216.34 283.066 1215.38 280.231 1215.38 276.704V276.431ZM1219.29 276.893C1219.29 279.413 1219.87 281.435 1221.03 282.961C1222.21 284.487 1223.78 285.25 1225.74 285.25C1227.71 285.25 1229.28 284.48 1230.44 282.94C1231.6 281.386 1232.18 279.217 1232.18 276.431C1232.18 273.94 1231.59 271.924 1230.4 270.384C1229.22 268.831 1227.65 268.054 1225.69 268.054C1223.78 268.054 1222.23 268.817 1221.05 270.342C1219.88 271.868 1219.29 274.052 1219.29 276.893ZM1245.16 288H1241.27V265.282H1245.16V288ZM1240.96 259.256C1240.96 258.626 1241.15 258.095 1241.52 257.661C1241.92 257.227 1242.49 257.01 1243.25 257.01C1244 257.01 1244.58 257.227 1244.97 257.661C1245.36 258.095 1245.56 258.626 1245.56 259.256C1245.56 259.886 1245.36 260.411 1244.97 260.831C1244.58 261.251 1244 261.461 1243.25 261.461C1242.49 261.461 1241.92 261.251 1241.52 260.831C1241.15 260.411 1240.96 259.886 1240.96 259.256ZM1255.07 265.282L1255.19 268.138C1256.93 265.954 1259.2 264.862 1262 264.862C1266.8 264.862 1269.22 267.571 1269.26 272.988V288H1265.38V272.967C1265.36 271.329 1264.98 270.118 1264.24 269.334C1263.51 268.551 1262.37 268.159 1260.82 268.159C1259.56 268.159 1258.45 268.495 1257.5 269.167C1256.55 269.838 1255.81 270.72 1255.28 271.812V288H1251.39V265.282H1255.07ZM1274.19 276.452C1274.19 272.911 1275.01 270.097 1276.65 268.012C1278.29 265.912 1280.46 264.862 1283.16 264.862C1285.93 264.862 1288.09 265.842 1289.65 267.802L1289.84 265.282H1293.39V287.454C1293.39 290.394 1292.51 292.71 1290.76 294.404C1289.03 296.097 1286.69 296.944 1283.75 296.944C1282.11 296.944 1280.51 296.594 1278.94 295.895C1277.37 295.195 1276.18 294.236 1275.35 293.018L1277.37 290.688C1279.03 292.745 1281.07 293.774 1283.48 293.774C1285.36 293.774 1286.83 293.242 1287.88 292.178C1288.95 291.114 1289.48 289.617 1289.48 287.685V285.732C1287.93 287.524 1285.81 288.42 1283.12 288.42C1280.46 288.42 1278.3 287.349 1276.65 285.208C1275.01 283.066 1274.19 280.147 1274.19 276.452ZM1278.1 276.893C1278.1 279.455 1278.62 281.47 1279.67 282.94C1280.72 284.396 1282.19 285.124 1284.08 285.124C1286.53 285.124 1288.33 284.011 1289.48 281.785V271.413C1288.29 269.243 1286.51 268.159 1284.13 268.159C1282.24 268.159 1280.76 268.894 1279.7 270.363C1278.63 271.833 1278.1 274.01 1278.1 276.893ZM635.554 309.781V315.282H639.795V318.285H635.554V332.373C635.554 333.283 635.743 333.969 636.121 334.431C636.499 334.879 637.143 335.103 638.053 335.103C638.501 335.103 639.117 335.019 639.9 334.851V338C638.879 338.28 637.885 338.42 636.919 338.42C635.183 338.42 633.875 337.895 632.993 336.845C632.111 335.795 631.67 334.305 631.67 332.373V318.285H627.534V315.282H631.67V309.781H635.554ZM642.903 326.431C642.903 324.206 643.337 322.204 644.205 320.426C645.086 318.649 646.304 317.277 647.858 316.311C649.426 315.345 651.21 314.862 653.212 314.862C656.305 314.862 658.804 315.933 660.708 318.075C662.625 320.216 663.584 323.065 663.584 326.62V326.893C663.584 329.105 663.157 331.092 662.303 332.856C661.463 334.606 660.253 335.97 658.671 336.95C657.103 337.93 655.298 338.42 653.254 338.42C650.174 338.42 647.676 337.349 645.758 335.208C643.855 333.066 642.903 330.231 642.903 326.704V326.431ZM646.808 326.893C646.808 329.413 647.389 331.435 648.551 332.961C649.727 334.487 651.294 335.25 653.254 335.25C655.228 335.25 656.795 334.48 657.957 332.94C659.119 331.386 659.7 329.217 659.7 326.431C659.7 323.94 659.105 321.924 657.915 320.384C656.739 318.831 655.172 318.054 653.212 318.054C651.294 318.054 649.748 318.817 648.572 320.342C647.396 321.868 646.808 324.052 646.808 326.893ZM678.176 326.452C678.176 322.967 679.002 320.167 680.654 318.054C682.306 315.926 684.468 314.862 687.142 314.862C689.801 314.862 691.908 315.772 693.461 317.592V305.75H697.346V338H693.776L693.587 335.564C692.034 337.468 689.871 338.42 687.1 338.42C684.468 338.42 682.319 337.342 680.654 335.187C679.002 333.031 678.176 330.217 678.176 326.746V326.452ZM682.061 326.893C682.061 329.469 682.592 331.484 683.656 332.94C684.72 334.396 686.19 335.124 688.065 335.124C690.529 335.124 692.328 334.018 693.461 331.806V321.371C692.3 319.229 690.515 318.159 688.107 318.159C686.204 318.159 684.72 318.894 683.656 320.363C682.592 321.833 682.061 324.01 682.061 326.893ZM702.364 326.431C702.364 324.206 702.798 322.204 703.666 320.426C704.547 318.649 705.765 317.277 707.319 316.311C708.887 315.345 710.671 314.862 712.673 314.862C715.766 314.862 718.265 315.933 720.168 318.075C722.086 320.216 723.045 323.065 723.045 326.62V326.893C723.045 329.105 722.618 331.092 721.764 332.856C720.924 334.606 719.714 335.97 718.132 336.95C716.564 337.93 714.758 338.42 712.715 338.42C709.635 338.42 707.137 337.349 705.219 335.208C703.316 333.066 702.364 330.231 702.364 326.704V326.431ZM706.269 326.893C706.269 329.413 706.85 331.435 708.012 332.961C709.188 334.487 710.755 335.25 712.715 335.25C714.688 335.25 716.256 334.48 717.418 332.94C718.58 331.386 719.161 329.217 719.161 326.431C719.161 323.94 718.566 321.924 717.376 320.384C716.2 318.831 714.632 318.054 712.673 318.054C710.755 318.054 709.208 318.817 708.033 320.342C706.857 321.868 706.269 324.052 706.269 326.893ZM742.256 315.282L742.382 318.138C744.118 315.954 746.386 314.862 749.185 314.862C753.986 314.862 756.408 317.571 756.45 322.988V338H752.565V322.967C752.551 321.329 752.174 320.118 751.432 319.334C750.704 318.551 749.563 318.159 748.009 318.159C746.75 318.159 745.644 318.495 744.692 319.167C743.74 319.838 742.998 320.72 742.466 321.812V338H738.582V315.282H742.256ZM771.735 338.42C768.655 338.42 766.15 337.412 764.218 335.396C762.287 333.367 761.321 330.658 761.321 327.271V326.557C761.321 324.304 761.748 322.295 762.602 320.531C763.469 318.754 764.673 317.368 766.213 316.374C767.767 315.366 769.446 314.862 771.252 314.862C774.205 314.862 776.501 315.835 778.139 317.781C779.776 319.726 780.595 322.512 780.595 326.137V327.754H765.205C765.261 329.993 765.912 331.806 767.158 333.192C768.417 334.564 770.013 335.25 771.945 335.25C773.317 335.25 774.478 334.97 775.43 334.41C776.382 333.85 777.215 333.108 777.929 332.184L780.301 334.032C778.398 336.957 775.542 338.42 771.735 338.42ZM771.252 318.054C769.684 318.054 768.368 318.628 767.305 319.775C766.241 320.909 765.583 322.505 765.331 324.562H776.711V324.269C776.599 322.295 776.067 320.769 775.115 319.691C774.163 318.6 772.876 318.054 771.252 318.054ZM792.731 323.576L797.77 315.282H802.305L794.873 326.515L802.536 338H798.043L792.794 329.497L787.545 338H783.031L790.694 326.515L783.262 315.282H787.755L792.731 323.576ZM811.711 309.781V315.282H815.953V318.285H811.711V332.373C811.711 333.283 811.9 333.969 812.278 334.431C812.656 334.879 813.3 335.103 814.21 335.103C814.658 335.103 815.274 335.019 816.058 334.851V338C815.036 338.28 814.042 338.42 813.076 338.42C811.34 338.42 810.032 337.895 809.15 336.845C808.268 335.795 807.827 334.305 807.827 332.373V318.285H803.691V315.282H807.827V309.781H811.711ZM824.855 329.371H821.349L821.076 307.43H825.149L824.855 329.371ZM820.929 336.047C820.929 335.417 821.118 334.893 821.496 334.473C821.888 334.039 822.461 333.822 823.217 333.822C823.973 333.822 824.547 334.039 824.939 334.473C825.331 334.893 825.527 335.417 825.527 336.047C825.527 336.677 825.331 337.202 824.939 337.622C824.547 338.028 823.973 338.231 823.217 338.231C822.461 338.231 821.888 338.028 821.496 337.622C821.118 337.202 820.929 336.677 820.929 336.047Z" fill="#363E59"/>
<path d="M336.785 274.597C336.785 270.495 337.745 267.224 339.666 264.782C341.602 262.325 344.166 261.096 347.356 261.096C350.367 261.096 352.735 262.146 354.46 264.245L354.729 261.584H360.076V287.194C360.076 290.661 358.993 293.396 356.829 295.397C354.68 297.399 351.775 298.4 348.113 298.4C346.176 298.4 344.28 297.993 342.424 297.18C340.585 296.382 339.185 295.332 338.225 294.03L341.033 290.466C342.856 292.631 345.102 293.713 347.771 293.713C349.74 293.713 351.295 293.176 352.434 292.102C353.573 291.044 354.143 289.481 354.143 287.414V285.632C352.434 287.536 350.155 288.488 347.307 288.488C344.215 288.488 341.684 287.259 339.714 284.802C337.761 282.344 336.785 278.942 336.785 274.597ZM342.693 275.109C342.693 277.762 343.23 279.854 344.304 281.384C345.395 282.897 346.9 283.654 348.821 283.654C351.213 283.654 352.987 282.629 354.143 280.578V268.957C353.02 266.955 351.262 265.954 348.87 265.954C346.917 265.954 345.395 266.727 344.304 268.273C343.23 269.82 342.693 272.098 342.693 275.109ZM380.022 267.004C379.241 266.874 378.435 266.809 377.605 266.809C374.887 266.809 373.056 267.85 372.112 269.934V288H366.179V261.584H371.843L371.99 264.538C373.422 262.243 375.408 261.096 377.947 261.096C378.793 261.096 379.493 261.21 380.046 261.438L380.022 267.004ZM394.915 288.488C391.155 288.488 388.103 287.308 385.759 284.948C383.432 282.572 382.268 279.414 382.268 275.476V274.743C382.268 272.106 382.773 269.755 383.782 267.688C384.807 265.604 386.239 263.985 388.079 262.829C389.918 261.674 391.969 261.096 394.231 261.096C397.828 261.096 400.603 262.243 402.556 264.538C404.526 266.833 405.51 270.08 405.51 274.279V276.672H388.25C388.429 278.853 389.153 280.578 390.422 281.848C391.708 283.117 393.319 283.752 395.256 283.752C397.974 283.752 400.188 282.653 401.897 280.456L405.095 283.508C404.037 285.087 402.621 286.315 400.847 287.194C399.089 288.057 397.112 288.488 394.915 288.488ZM394.207 265.856C392.579 265.856 391.261 266.426 390.251 267.565C389.259 268.705 388.624 270.292 388.347 272.326H399.651V271.887C399.521 269.901 398.992 268.404 398.064 267.395C397.136 266.369 395.85 265.856 394.207 265.856ZM421.77 288.488C418.01 288.488 414.958 287.308 412.615 284.948C410.287 282.572 409.124 279.414 409.124 275.476V274.743C409.124 272.106 409.628 269.755 410.637 267.688C411.663 265.604 413.095 263.985 414.934 262.829C416.773 261.674 418.824 261.096 421.086 261.096C424.683 261.096 427.458 262.243 429.412 264.538C431.381 266.833 432.366 270.08 432.366 274.279V276.672H415.105C415.284 278.853 416.008 280.578 417.278 281.848C418.564 283.117 420.175 283.752 422.112 283.752C424.83 283.752 427.043 282.653 428.752 280.456L431.951 283.508C430.893 285.087 429.477 286.315 427.703 287.194C425.945 288.057 423.967 288.488 421.77 288.488ZM421.062 265.856C419.434 265.856 418.116 266.426 417.107 267.565C416.114 268.705 415.479 270.292 415.203 272.326H426.506V271.887C426.376 269.901 425.847 268.404 424.919 267.395C423.992 266.369 422.706 265.856 421.062 265.856ZM442.498 261.584L442.668 264.636C444.622 262.276 447.185 261.096 450.359 261.096C455.86 261.096 458.66 264.245 458.757 270.544V288H452.825V270.886C452.825 269.209 452.458 267.972 451.726 267.175C451.01 266.361 449.83 265.954 448.186 265.954C445.793 265.954 444.011 267.036 442.839 269.201V288H436.907V261.584H442.498ZM500.457 275.061C500.457 279.162 499.537 282.425 497.698 284.851C495.875 287.276 493.36 288.488 490.154 288.488C487.061 288.488 484.653 287.373 482.927 285.144L482.634 288H477.263V250.5H483.196V264.123C484.905 262.105 487.208 261.096 490.105 261.096C493.328 261.096 495.859 262.292 497.698 264.685C499.537 267.077 500.457 270.422 500.457 274.719V275.061ZM494.524 274.548C494.524 271.683 494.019 269.535 493.01 268.103C492.001 266.67 490.536 265.954 488.616 265.954C486.044 265.954 484.237 267.077 483.196 269.323V280.212C484.254 282.507 486.077 283.654 488.665 283.654C490.52 283.654 491.952 282.963 492.961 281.579C493.971 280.196 494.491 278.104 494.524 275.305V274.548ZM521.453 285.412C519.711 287.463 517.237 288.488 514.031 288.488C511.166 288.488 508.993 287.65 507.512 285.974C506.047 284.297 505.315 281.872 505.315 278.698V261.584H511.248V278.625C511.248 281.978 512.639 283.654 515.422 283.654C518.303 283.654 520.248 282.621 521.257 280.554V261.584H527.19V288H521.599L521.453 285.412ZM540.667 255.163V261.584H545.33V265.979H540.667V280.725C540.667 281.734 540.862 282.466 541.252 282.922C541.659 283.361 542.375 283.581 543.401 283.581C544.084 283.581 544.776 283.5 545.476 283.337V287.927C544.125 288.301 542.823 288.488 541.57 288.488C537.013 288.488 534.734 285.974 534.734 280.944V265.979H530.388V261.584H534.734V255.163H540.667ZM557.317 255.163V261.584H561.98V265.979H557.317V280.725C557.317 281.734 557.512 282.466 557.903 282.922C558.31 283.361 559.026 283.581 560.051 283.581C560.735 283.581 561.427 283.5 562.126 283.337V287.927C560.776 288.301 559.473 288.488 558.22 288.488C553.663 288.488 551.384 285.974 551.384 280.944V265.979H547.039V261.584H551.384V255.163H557.317ZM564.69 274.548C564.69 271.96 565.203 269.632 566.228 267.565C567.253 265.482 568.694 263.887 570.549 262.78C572.405 261.657 574.537 261.096 576.946 261.096C580.51 261.096 583.399 262.243 585.613 264.538C587.843 266.833 589.047 269.877 589.226 273.669L589.25 275.061C589.25 277.665 588.746 279.992 587.737 282.043C586.744 284.094 585.312 285.681 583.44 286.804C581.584 287.927 579.436 288.488 576.995 288.488C573.267 288.488 570.281 287.251 568.035 284.777C565.805 282.287 564.69 278.975 564.69 274.841V274.548ZM570.623 275.061C570.623 277.779 571.184 279.911 572.307 281.457C573.43 282.987 574.993 283.752 576.995 283.752C578.997 283.752 580.551 282.971 581.658 281.408C582.781 279.846 583.342 277.559 583.342 274.548C583.342 271.879 582.764 269.763 581.609 268.2C580.47 266.638 578.915 265.856 576.946 265.856C575.009 265.856 573.471 266.63 572.332 268.176C571.192 269.706 570.623 272.001 570.623 275.061ZM599.773 261.584L599.944 264.636C601.897 262.276 604.46 261.096 607.634 261.096C613.136 261.096 615.935 264.245 616.033 270.544V288H610.1V270.886C610.1 269.209 609.734 267.972 609.001 267.175C608.285 266.361 607.105 265.954 605.461 265.954C603.069 265.954 601.287 267.036 600.115 269.201V288H594.182V261.584H599.773Z" fill="#8FDA53"/>
<path d="M1187.9 487.803C1211.37 483.666 1232.27 477.701 1247.1 471.377C1254.5 468.22 1260.47 464.941 1264.5 461.705C1266.51 460.088 1268.1 458.432 1269.12 456.749C1270.15 455.056 1270.66 453.255 1270.34 451.436C1270.02 449.617 1268.92 448.097 1267.38 446.859C1265.84 445.628 1263.78 444.615 1261.34 443.783C1256.45 442.119 1249.72 441.079 1241.68 440.645C1225.58 439.776 1203.9 441.319 1180.43 445.457C1156.97 449.594 1136.07 455.559 1121.24 461.883C1113.83 465.04 1107.86 468.319 1103.84 471.555C1101.83 473.172 1100.24 474.828 1099.21 476.511C1098.18 478.204 1097.68 480.005 1098 481.824C1098.32 483.643 1099.41 485.163 1100.96 486.401C1102.5 487.632 1104.55 488.645 1107 489.477C1111.89 491.141 1118.62 492.181 1126.65 492.615C1142.75 493.485 1164.43 491.941 1187.9 487.803Z" fill="white" stroke="#CACACA" stroke-width="3"/>
</svg>
