<svg width="200" height="200" viewBox="0 0 200 200" fill="none" xmlns="http://www.w3.org/2000/svg">
<path d="M158.333 74.9999H141.667V62.4999C141.667 39.4874 123.012 20.8333 100 20.8333C76.9875 20.8333 58.3333 39.4874 58.3333 62.4999V74.9999H41.6667C37.2464 74.9999 33.0072 76.7559 29.8816 79.8815C26.7559 83.0071 25 87.2463 25 91.6666V158.333C25 162.754 26.7559 166.993 29.8816 170.118C33.0072 173.244 37.2464 175 41.6667 175H158.333C162.754 175 166.993 173.244 170.118 170.118C173.244 166.993 175 162.754 175 158.333V91.6666C175 87.2463 173.244 83.0071 170.118 79.8815C166.993 76.7559 162.754 74.9999 158.333 74.9999ZM70.8333 62.4999C70.8333 46.4166 83.9167 33.3333 100 33.3333C116.083 33.3333 129.167 46.4166 129.167 62.4999V74.9999H70.8333V62.4999ZM162.5 158.333C162.5 160.629 160.629 162.5 158.333 162.5H41.6667C39.3708 162.5 37.5 160.629 37.5 158.333V91.6666C37.5 89.3708 39.3708 87.4999 41.6667 87.4999H158.333C160.629 87.4999 162.5 89.3708 162.5 91.6666V158.333Z" fill="black"/>
<path d="M100 104.167C97.2639 104.167 94.5546 104.706 92.0269 105.754C89.4991 106.801 87.2024 108.336 85.2678 110.271C81.3608 114.179 79.1662 119.478 79.1667 125.004C79.1673 130.53 81.363 135.83 85.2708 139.737C89.1786 143.644 94.4784 145.838 100.004 145.838C105.53 145.837 110.829 143.641 114.737 139.734C118.644 135.826 120.838 130.526 120.838 125C120.837 119.474 118.641 114.175 114.734 110.268C110.826 106.361 105.526 104.166 100 104.167ZM100 133.333C95.4042 133.333 91.6667 129.596 91.6667 125C91.6667 120.404 95.4042 116.667 100 116.667C104.596 116.667 108.333 120.404 108.333 125C108.333 129.596 104.596 133.333 100 133.333Z" fill="black"/>
</svg>
