<svg width="200" height="200" viewBox="0 0 200 200" fill="none" xmlns="http://www.w3.org/2000/svg">
<path d="M158.333 75.0001H141.667V62.5001C141.667 38.5709 121.496 19.3501 97.225 20.9251C75.0792 22.3584 58.3333 41.7334 58.3333 63.9292C58.3333 65.4417 59.5583 66.6667 61.0708 66.6667H67.6792C68.515 66.6667 69.3166 66.335 69.908 65.7444C70.4994 65.1538 70.8322 64.3526 70.8333 63.5167C70.8333 48.6959 81.4583 35.4667 96.1625 33.5792C100.28 33.0388 104.466 33.3829 108.44 34.5885C112.415 35.7942 116.086 37.8336 119.209 40.5707C122.333 43.3078 124.837 46.6796 126.554 50.4611C128.271 54.2427 129.162 58.347 129.167 62.5001V75.0001H41.6667C37.2464 75.0001 33.0072 76.756 29.8816 79.8816C26.7559 83.0072 25 87.2465 25 91.6667V158.333C25 162.754 26.7559 166.993 29.8816 170.119C33.0072 173.244 37.2464 175 41.6667 175H158.333C162.754 175 166.993 173.244 170.118 170.119C173.244 166.993 175 162.754 175 158.333V91.6667C175 87.2465 173.244 83.0072 170.118 79.8816C166.993 76.756 162.754 75.0001 158.333 75.0001ZM162.5 158.333C162.5 160.629 160.629 162.5 158.333 162.5H41.6667C39.3708 162.5 37.5 160.629 37.5 158.333V91.6667C37.5 89.3709 39.3708 87.5001 41.6667 87.5001H158.333C160.629 87.5001 162.5 89.3709 162.5 91.6667V158.333Z" fill="black"/>
<path d="M100 113V139" stroke="black" stroke-width="12"/>
</svg>
